<?xml version="1.0" encoding="UTF-8"?>
<svg width="775px" height="815px" viewBox="0 0 775 815" version="1.1" xmlns="http://www.w3.org/2000/svg" xmlns:xlink="http://www.w3.org/1999/xlink">
    <title>Group 6</title>
    <defs>
        <polygon id="path-1" points="0 0 773.784332 0 773.784332 814.005586 0 814.005586"></polygon>
    </defs>
    <g id="Page-1" stroke="none" stroke-width="1" fill="none" fill-rule="evenodd">
        <g id="Group-6" transform="translate(0.549615, 0.000000)">
            <mask id="mask-2" fill="white">
                <use xlink:href="#path-1"></use>
            </mask>
            <g id="Clip-3"></g>
            <path d="M574.076669,457.120055 L546.005227,472.694588 C540.241794,475.893129 538.149621,483.163267 541.349227,488.942667 C543.527445,492.870616 547.592283,495.095549 551.794155,495.095549 C553.741326,495.095549 555.733112,494.616725 557.557588,493.600024 L585.635404,478.019106 C591.398837,474.820565 593.484636,467.552024 590.291404,461.777412 C587.098172,456.004396 579.833728,453.921514 574.076669,457.120055 Z" id="Fill-2" fill="#FFFFFF" mask="url(#mask-2)"></path>
            <path d="M772.004471,600.256369 C773.150147,598.385765 773.784332,596.191157 773.784332,593.996549 L773.784332,488.893188 C773.784332,482.290212 768.443157,476.940157 761.852734,476.940157 C755.267092,476.940157 749.925917,482.290212 749.925917,488.893188 L749.925917,575.585784 L635.230886,524.348475 L635.230886,302.338753 L749.925917,238.688741 L749.925917,436.864224 C749.925917,443.4672 755.267092,448.809275 761.852734,448.809275 C768.443157,448.809275 773.784332,443.4672 773.784332,436.864224 L773.784332,218.407373 C773.784332,214.149035 771.362319,210.027961 767.635289,207.964231 L392.674319,-0.118109804 C389.114599,-2.08288235 384.676899,-2.08288235 381.115584,-0.118109804 L6.14983488,207.964231 C2.36544063,210.058286 -0.0501979781,214.224051 -1.13686838e-13,218.55102 L-1.13686838e-13,593.996549 C-1.13686838e-13,598.261271 2.42121065,602.375961 6.14983488,604.446075 L171.362944,696.1328 C177.126377,699.324957 184.378073,697.237286 187.571305,691.469059 C190.762944,685.696043 188.678738,678.421118 182.921679,675.228961 L38.6223277,595.150514 L149.901046,545.440651 L374.966541,670.333788 L374.966541,781.797522 L230.22581,701.482855 C224.468751,698.284314 217.204307,700.367196 214.011075,706.146596 C210.817843,711.913227 212.910016,719.183365 218.667075,722.381906 L381.115584,812.528416 C384.657777,814.497976 389.13372,814.497976 392.674319,812.528416 L563.046952,717.979922 C568.810385,714.78138 570.88981,707.511243 567.696578,701.738227 C564.50972,695.971596 557.24687,693.875945 551.481843,697.074486 L398.818582,781.797522 L398.818582,670.333788 L623.877703,545.440651 L735.156422,595.150514 L598.755699,670.850918 C592.992266,674.049459 590.912841,681.313212 594.106073,687.086227 C596.27951,691.026945 600.349129,693.253475 604.544627,693.253475 C606.499765,693.253475 608.485178,692.766671 610.320808,691.749969 L767.635289,604.446075 C769.402402,603.474063 770.946434,601.970557 772.004471,600.256369 Z M386.891765,177.763235 L598.687182,295.300047 L386.891765,412.835263 L175.096348,295.300047 L386.891765,177.763235 Z M623.305662,281.645596 L398.818582,157.070078 L398.818582,30.6064 L737.240627,218.407373 L623.305662,281.645596 Z M374.966541,157.070078 L150.485835,281.645596 L36.5429026,218.407373 L374.966541,30.6064 L374.966541,157.070078 Z M23.8576131,238.688741 L138.554237,302.338753 L138.554237,524.348475 L23.8576131,575.585784 L23.8576131,238.688741 Z M162.411059,315.581416 L374.966541,433.534804 L374.966541,643.013714 L162.411059,525.060325 L162.411059,315.581416 Z M398.818582,433.534804 L611.372471,315.581416 L611.372471,525.060325 L398.818582,643.013714 L398.818582,433.534804 Z" id="Fill-4" fill="#FFFFFF" mask="url(#mask-2)"></path>
        </g>
    </g>
</svg>