<?xml version="1.0" encoding="UTF-8"?>
<svg width="4023px" height="815px" viewBox="0 0 4023 815" version="1.1" xmlns="http://www.w3.org/2000/svg" xmlns:xlink="http://www.w3.org/1999/xlink">
    <title>Group 9</title>
    <defs>
        <polygon id="path-1" points="0 0 773.784332 0 773.784332 814.005586 0 814.005586"></polygon>
    </defs>
    <g id="Page-1" stroke="none" stroke-width="1" fill="none" fill-rule="evenodd">
        <g id="Group-9" transform="translate(0.549615, 0.000000)">
            <path d="M1179.37261,583 C1190.21705,583 1200.72261,582.321818 1210.88927,580.965455 C1221.05594,579.609091 1230.20594,577.800606 1238.33927,575.54 C1247.82816,573.279394 1256.8652,570.566667 1265.45039,567.401818 L1265.45039,567.401818 L1265.45039,492.123636 C1255.9615,495.288485 1246.47261,498.001212 1236.98372,500.261818 C1228.85039,502.522424 1220.15224,504.330909 1210.88927,505.687273 C1201.62631,507.043636 1193.38001,507.721818 1186.15039,507.721818 C1176.20964,507.721818 1166.94668,506.478485 1158.3615,503.991818 C1149.77631,501.505152 1142.43372,496.418788 1136.33372,488.732727 C1130.23372,481.046667 1125.37631,470.082727 1121.7615,455.840909 C1118.14668,441.599091 1116.33927,422.49697 1116.33927,398.534545 C1116.33927,372.763636 1118.48557,352.192121 1122.77816,336.82 C1127.07076,321.447879 1132.7189,309.805758 1139.72261,301.893636 C1146.72631,293.981515 1154.74668,288.895152 1163.78372,286.634545 C1172.82076,284.373939 1182.08372,283.243636 1191.57261,283.243636 C1197.44668,283.243636 1204.67631,284.034848 1213.2615,285.617273 C1221.84668,287.199697 1229.98001,288.895152 1237.6615,290.703636 C1246.69853,292.964242 1255.9615,295.450909 1265.45039,298.163636 L1265.45039,298.163636 L1265.45039,225.598182 C1259.57631,222.885455 1252.57261,220.398788 1244.43927,218.138182 C1237.6615,215.877576 1229.64113,213.956061 1220.37816,212.373636 C1211.1152,210.791212 1200.83557,210 1189.53927,210 C1174.17631,210 1156.78001,211.808485 1137.35039,215.425455 C1117.92076,219.042424 1099.62076,227.293636 1082.45039,240.179091 C1065.28001,253.064545 1050.82076,272.053636 1039.07261,297.146364 C1027.32446,322.239091 1021.45039,356.035152 1021.45039,398.534545 C1021.45039,441.033939 1026.42076,474.490909 1036.3615,498.905455 C1046.30224,523.32 1059.06705,541.743939 1074.65594,554.177273 C1090.24483,566.610606 1107.30224,574.522727 1125.82816,577.913636 C1144.35409,581.304545 1162.20224,583 1179.37261,583 Z M1406.72816,576 L1406.72816,311.037037 C1411.7189,308.783951 1416.70964,306.756173 1421.70039,304.953704 C1426.23742,303.151235 1431.22816,301.574074 1436.67261,300.222222 C1442.11705,298.87037 1447.5615,298.194444 1453.00594,298.194444 C1457.99668,298.194444 1463.66798,298.532407 1470.01983,299.208333 C1476.37168,299.884259 1482.26983,300.67284 1487.71427,301.574074 C1494.06613,302.925926 1500.64483,304.052469 1507.45039,304.953704 L1507.45039,304.953704 L1507.45039,215.055556 C1503.82076,214.604938 1499.96427,213.929012 1495.88094,213.027778 C1492.25131,212.57716 1488.05455,212.126543 1483.29066,211.675926 C1478.52677,211.225309 1473.19576,211 1467.29761,211 C1455.95501,211 1446.20039,213.253086 1438.03372,217.759259 C1429.86705,222.265432 1422.83464,227.222222 1416.9365,232.62963 C1410.13094,238.938272 1404.45964,245.92284 1399.92261,253.583333 L1399.92261,253.583333 L1387.67261,217.759259 L1311.45039,217.759259 L1311.45039,576 L1406.72816,576 Z M1625.31085,583 C1640.7031,583 1654.51085,581.078485 1666.73411,577.235455 C1678.95736,573.392424 1689.14341,568.984242 1697.29225,564.010909 C1706.79922,558.585455 1715.17442,552.029697 1722.41783,544.343636 L1722.41783,544.343636 L1732.60387,576.218182 L1815.45039,576.218182 L1815.45039,326.647273 C1815.45039,301.780606 1812.05504,281.774242 1805.26434,266.628182 C1798.47364,251.482121 1789.07984,239.72697 1777.08294,231.362727 C1765.08604,222.998485 1751.27829,217.34697 1735.65969,214.408182 C1720.04108,211.469394 1703.40387,210 1685.74806,210 C1668.54496,210 1652.13411,211.130303 1636.5155,213.390909 C1620.8969,215.651515 1607.20232,218.138182 1595.43178,220.850909 C1581.39767,224.015758 1568.26899,227.632727 1556.04573,231.701818 L1556.04573,231.701818 L1556.04573,306.98 C1568.26899,303.36303 1580.7186,299.972121 1593.39457,296.807273 C1604.25969,294.546667 1616.36977,292.286061 1629.7248,290.025455 C1643.07984,287.764848 1656.3217,286.634545 1669.45039,286.634545 C1685.74806,286.634545 1698.31085,288.782121 1707.13876,293.077273 C1715.96666,297.372424 1720.38062,308.336364 1720.38062,325.969091 L1720.38062,325.969091 L1720.38062,351.74 L1657.9062,351.74 C1644.3248,351.74 1629.7248,353.096364 1614.1062,355.809091 C1598.48759,358.521818 1584.00077,364.060303 1570.64573,372.424545 C1557.2907,380.788788 1546.08604,392.543939 1537.03178,407.69 C1527.97752,422.836061 1523.45039,442.616364 1523.45039,467.030909 C1523.45039,491.445455 1526.73256,511.225758 1533.2969,526.371818 C1539.86124,541.517879 1548.12325,553.27303 1558.08294,561.637273 C1568.04263,570.001515 1579.02093,575.65303 1591.01783,578.591818 C1603.01473,581.530606 1614.44573,583 1625.31085,583 Z M1659.93039,512 C1647.69039,512 1637.71705,508.820833 1630.01039,502.4625 C1622.30372,496.104167 1618.45039,483.3875 1618.45039,464.3125 C1618.45039,452.958333 1619.81039,443.420833 1622.53039,435.7 C1625.25039,427.979167 1629.67039,421.847917 1635.79039,417.30625 C1641.91039,412.764583 1649.61705,409.471875 1658.91039,407.428125 C1668.20372,405.384375 1679.65039,404.135417 1693.25039,403.68125 L1693.25039,403.68125 L1720.45039,403 L1720.45039,494.2875 C1715.01039,497.920833 1709.11705,500.872917 1702.77039,503.14375 C1697.33039,505.414583 1690.87039,507.458333 1683.39039,509.275 C1675.91039,511.091667 1668.09039,512 1659.93039,512 Z M2010.72816,583 C2021.57261,583 2032.19113,582.322857 2042.58372,580.968571 C2052.97631,579.614286 2062.01335,577.808571 2069.69483,575.551429 C2078.73187,573.294286 2087.31705,570.585714 2095.45039,567.425714 L2095.45039,567.425714 L2095.45039,495.648571 C2085.9615,497.905714 2077.15039,499.937143 2069.01705,501.742857 C2061.78742,503.548571 2054.44483,505.015714 2046.98927,506.144286 C2039.53372,507.272857 2033.99853,507.837143 2030.38372,507.837143 C2024.05779,507.837143 2018.63557,506.595714 2014.11705,504.112857 C2009.59853,501.63 2007.33927,495.197143 2007.33927,484.814286 L2007.33927,484.814286 L2007.33927,280.994286 L2079.18372,280.994286 L2088.67261,217.342857 L2007.33927,217.342857 L2007.33927,109 L1919.22816,138.117143 L1912.45039,217.342857 L1851.45039,217.342857 L1851.45039,280.994286 L1912.45039,280.994286 L1912.45039,486.168571 C1912.45039,507.385714 1915.27446,524.314286 1920.92261,536.954286 C1926.57076,549.594286 1934.02631,559.3 1943.28927,566.071429 C1952.55224,572.842857 1963.05779,577.357143 1974.80594,579.614286 C1986.55409,581.871429 1998.52816,583 2010.72816,583 Z M2280.86865,583 C2295.3595,583 2309.17108,582.095758 2322.30341,580.287273 C2335.43573,578.478788 2347.20954,576.444242 2357.62484,574.183636 C2369.39865,571.470909 2380.4932,568.306061 2390.90849,564.689091 L2390.90849,564.689091 L2390.90849,489.410909 C2379.13468,493.027879 2366.90803,496.192727 2354.22854,498.905455 C2343.36041,501.166061 2331.36018,503.200606 2318.22786,505.009091 C2305.09553,506.817576 2292.64246,507.721818 2280.86865,507.721818 C2273.17039,507.721818 2265.24571,506.817576 2257.09462,505.009091 C2248.94352,503.200606 2241.35847,499.583636 2234.33946,494.158182 C2227.32046,488.732727 2221.43356,480.707576 2216.67875,470.082727 C2211.92394,459.457879 2209.32012,445.329091 2208.86728,427.696364 L2208.86728,427.696364 L2412.64475,427.696364 L2413.32401,396.5 C2414.22969,358.069697 2410.26735,326.760303 2401.43699,302.571818 C2392.60664,278.383333 2381.05925,259.394242 2366.79482,245.604545 C2352.5304,231.814848 2336.56783,222.433333 2318.90712,217.46 C2301.2464,212.486667 2284.03853,210 2267.28349,210 C2249.16994,210 2231.05638,212.599697 2212.94283,217.799091 C2194.82928,222.998485 2178.41387,232.606061 2163.69661,246.621818 C2148.97935,260.637576 2137.09233,279.626667 2128.03555,303.589091 C2118.97877,327.551515 2114.45039,358.521818 2114.45039,396.5 C2114.45039,438.095152 2119.65803,471.21303 2130.07332,495.853636 C2140.48862,520.494242 2153.73415,539.257273 2169.80993,552.142727 C2185.88571,565.028182 2203.77284,573.392424 2223.47133,577.235455 C2243.16982,581.078485 2262.30226,583 2280.86865,583 Z M2320.45039,368 L2208.45039,368 C2208.90567,332.394366 2213.68616,307.492958 2222.79185,293.295775 C2231.89754,279.098592 2246.69429,272 2267.18209,272 C2275.8325,272 2283.45852,273.352113 2290.06014,276.056338 C2296.66177,278.760563 2302.12518,283.71831 2306.45039,290.929577 C2310.77559,298.140845 2314.0764,307.943662 2316.35282,320.338028 C2318.62925,332.732394 2319.9951,348.619718 2320.45039,368 L2320.45039,368 Z M2548.9861,583 C2565.72419,583 2582.46229,581.756667 2599.20039,579.27 C2615.93848,576.783333 2630.98015,571.470909 2644.32539,563.332727 C2657.67062,555.194545 2668.52777,543.552424 2676.89681,528.406364 C2685.26586,513.260303 2689.45039,492.801818 2689.45039,467.030909 C2689.45039,452.56303 2687.41467,439.903636 2683.34324,429.052727 C2679.27181,418.201818 2673.95634,408.820303 2667.39681,400.908182 C2660.83729,392.996061 2653.25991,386.327273 2644.66467,380.901818 C2636.06943,375.476364 2627.248,370.955152 2618.20039,367.338182 L2618.20039,367.338182 L2584.27181,354.452727 C2570.70039,349.479394 2558.93848,344.39303 2548.9861,339.193636 C2539.03372,333.994242 2534.05753,325.969091 2534.05753,315.118182 C2534.05753,304.267273 2538.12896,296.468182 2546.27181,291.720909 C2554.41467,286.973636 2567.75991,284.6 2586.30753,284.6 C2593.54562,284.6 2602.25396,285.391212 2612.43253,286.973636 C2622.6111,288.556061 2632.22419,290.477576 2641.27181,292.738182 C2652.12896,294.998788 2663.21229,297.711515 2674.52181,300.876364 L2674.52181,300.876364 L2674.52181,226.954545 C2666.37896,223.789697 2657.33134,221.07697 2647.37896,218.816364 C2638.78372,216.555758 2628.94443,214.521212 2617.8611,212.712727 C2606.77777,210.904242 2594.90277,210 2582.2361,210 C2564.59324,210 2547.28967,211.695455 2530.32539,215.086364 C2513.3611,218.477273 2498.43253,224.354848 2485.53967,232.719091 C2472.64681,241.083333 2462.24205,252.499394 2454.32539,266.967273 C2446.40872,281.435152 2442.45039,299.746061 2442.45039,321.9 C2442.45039,338.176364 2444.82539,352.079091 2449.57539,363.608182 C2454.32539,375.137273 2460.54562,384.857879 2468.2361,392.77 C2475.92658,400.682121 2484.52181,407.237879 2494.02181,412.437273 C2503.52181,417.636667 2512.79562,421.818788 2521.84324,424.983636 L2521.84324,424.983636 L2550.34324,435.156364 C2563.46229,440.129697 2574.54562,445.216061 2583.59324,450.415455 C2592.64086,455.614848 2597.16467,463.866061 2597.16467,475.169091 C2597.16467,488.280606 2592.18848,496.983939 2582.2361,501.279091 C2572.28372,505.574242 2559.61705,507.721818 2544.2361,507.721818 C2536.998,507.721818 2528.06348,506.817576 2517.43253,505.009091 C2506.80158,503.200606 2496.28372,501.166061 2485.87896,498.905455 C2474.11705,496.192727 2461.90277,493.027879 2449.2361,489.410909 L2449.2361,489.410909 L2449.2361,566.045455 C2459.64086,569.662424 2470.498,572.601212 2481.80753,574.861818 C2491.30753,577.122424 2501.93848,579.043939 2513.70039,580.626364 C2525.46229,582.208788 2537.22419,583 2548.9861,583 Z M2838.10256,705 L2838.10256,572.09589 C2844.4127,573.90411 2850.94821,575.712329 2857.70908,577.520548 C2863.5685,578.876712 2869.99133,580.119863 2876.97756,581.25 C2883.96379,582.380137 2891.28807,582.945205 2898.95039,582.945205 C2908.4156,582.945205 2918.78227,582.267123 2930.05039,580.910959 C2941.3185,579.554795 2952.81198,576.729452 2964.53082,572.434932 C2976.24966,568.140411 2987.4051,561.811644 2997.99712,553.44863 C3008.58915,545.085616 3018.16705,534.010274 3026.73082,520.222603 C3035.29459,506.434932 3042.05546,489.256849 3047.01343,468.688356 C3051.9714,448.119863 3054.45039,423.369863 3054.45039,394.438356 C3054.45039,351.945205 3049.94314,318.380137 3040.92865,293.743151 C3031.91415,269.106164 3020.64604,250.571918 3007.1243,238.140411 C2993.60256,225.708904 2978.72865,217.910959 2962.50256,214.746575 C2946.27647,211.582192 2930.72647,210 2915.85256,210 C2902.78154,210 2891.17539,211.921233 2881.03408,215.763699 C2870.89278,219.606164 2862.21633,224.013699 2855.00473,228.986301 C2846.89169,234.410959 2839.45473,240.739726 2832.69386,247.972603 L2832.69386,247.972603 L2815.79169,216.780822 L2743.45039,216.780822 L2743.45039,705 L2838.10256,705 Z M2895.38372,515 C2889.50964,515 2883.29668,514.547826 2876.74483,513.643478 C2870.19298,512.73913 2863.98001,511.608696 2858.10594,510.252174 C2851.32816,508.895652 2844.77631,507.313043 2838.45039,505.504348 L2838.45039,505.504348 L2838.45039,301.347826 C2844.32446,297.730435 2850.65039,294.33913 2857.42816,291.173913 C2862.85039,288.913043 2869.06335,286.652174 2876.06705,284.391304 C2883.07076,282.130435 2889.73557,281 2896.0615,281 C2906.00224,281 2914.92631,281.678261 2922.83372,283.034783 C2930.74113,284.391304 2937.5189,288.686957 2943.16705,295.921739 C2948.8152,303.156522 2953.10779,314.46087 2956.04483,329.834783 C2958.98187,345.208696 2960.45039,366.913043 2960.45039,394.947826 C2960.45039,422.982609 2958.53001,444.913043 2954.68927,460.73913 C2950.84853,476.565217 2945.87816,488.547826 2939.77816,496.686957 C2933.67816,504.826087 2926.67446,509.913043 2918.76705,511.947826 C2910.85964,513.982609 2903.0652,515 2895.38372,515 Z M3200.31085,583 C3215.7031,583 3229.51085,581.078485 3241.73411,577.235455 C3253.95736,573.392424 3264.14341,568.984242 3272.29225,564.010909 C3281.79922,558.585455 3290.17442,552.029697 3297.41783,544.343636 L3297.41783,544.343636 L3307.60387,576.218182 L3390.45039,576.218182 L3390.45039,326.647273 C3390.45039,301.780606 3387.05504,281.774242 3380.26434,266.628182 C3373.47364,251.482121 3364.07984,239.72697 3352.08294,231.362727 C3340.08604,222.998485 3326.27829,217.34697 3310.65969,214.408182 C3295.04108,211.469394 3278.40387,210 3260.74806,210 C3243.54496,210 3227.13411,211.130303 3211.5155,213.390909 C3195.8969,215.651515 3182.20232,218.138182 3170.43178,220.850909 C3156.39767,224.015758 3143.26899,227.632727 3131.04573,231.701818 L3131.04573,231.701818 L3131.04573,306.98 C3143.26899,303.36303 3155.7186,299.972121 3168.39457,296.807273 C3179.25969,294.546667 3191.36977,292.286061 3204.7248,290.025455 C3218.07984,287.764848 3231.3217,286.634545 3244.45039,286.634545 C3260.74806,286.634545 3273.31085,288.782121 3282.13876,293.077273 C3290.96666,297.372424 3295.38062,308.336364 3295.38062,325.969091 L3295.38062,325.969091 L3295.38062,351.74 L3232.9062,351.74 C3219.3248,351.74 3204.7248,353.096364 3189.1062,355.809091 C3173.48759,358.521818 3159.00077,364.060303 3145.64573,372.424545 C3132.2907,380.788788 3121.08604,392.543939 3112.03178,407.69 C3102.97752,422.836061 3098.45039,442.616364 3098.45039,467.030909 C3098.45039,491.445455 3101.73256,511.225758 3108.2969,526.371818 C3114.86124,541.517879 3123.12325,553.27303 3133.08294,561.637273 C3143.04263,570.001515 3154.02093,575.65303 3166.01783,578.591818 C3178.01473,581.530606 3189.44573,583 3200.31085,583 Z M3234.93039,512 C3222.69039,512 3212.71705,508.820833 3205.01039,502.4625 C3197.30372,496.104167 3193.45039,483.3875 3193.45039,464.3125 C3193.45039,452.958333 3194.81039,443.420833 3197.53039,435.7 C3200.25039,427.979167 3204.67039,421.847917 3210.79039,417.30625 C3216.91039,412.764583 3224.61705,409.471875 3233.91039,407.428125 C3243.20372,405.384375 3254.65039,404.135417 3268.25039,403.68125 L3268.25039,403.68125 L3295.45039,403 L3295.45039,494.2875 C3290.01039,497.920833 3284.11705,500.872917 3277.77039,503.14375 C3272.33039,505.414583 3265.87039,507.458333 3258.39039,509.275 C3250.91039,511.091667 3243.09039,512 3234.93039,512 Z M3612.37261,583 C3623.21705,583 3633.72261,582.321818 3643.88927,580.965455 C3654.05594,579.609091 3663.20594,577.800606 3671.33927,575.54 C3680.82816,573.279394 3689.8652,570.566667 3698.45039,567.401818 L3698.45039,567.401818 L3698.45039,492.123636 C3688.9615,495.288485 3679.47261,498.001212 3669.98372,500.261818 C3661.85039,502.522424 3653.15224,504.330909 3643.88927,505.687273 C3634.62631,507.043636 3626.38001,507.721818 3619.15039,507.721818 C3609.20964,507.721818 3599.94668,506.478485 3591.3615,503.991818 C3582.77631,501.505152 3575.43372,496.418788 3569.33372,488.732727 C3563.23372,481.046667 3558.37631,470.082727 3554.7615,455.840909 C3551.14668,441.599091 3549.33927,422.49697 3549.33927,398.534545 C3549.33927,372.763636 3551.48557,352.192121 3555.77816,336.82 C3560.07076,321.447879 3565.7189,309.805758 3572.72261,301.893636 C3579.72631,293.981515 3587.74668,288.895152 3596.78372,286.634545 C3605.82076,284.373939 3615.08372,283.243636 3624.57261,283.243636 C3630.44668,283.243636 3637.67631,284.034848 3646.2615,285.617273 C3654.84668,287.199697 3662.98001,288.895152 3670.6615,290.703636 C3679.69853,292.964242 3688.9615,295.450909 3698.45039,298.163636 L3698.45039,298.163636 L3698.45039,225.598182 C3692.57631,222.885455 3685.57261,220.398788 3677.43927,218.138182 C3670.6615,215.877576 3662.64113,213.956061 3653.37816,212.373636 C3644.1152,210.791212 3633.83557,210 3622.53927,210 C3607.17631,210 3589.78001,211.808485 3570.35039,215.425455 C3550.92076,219.042424 3532.62076,227.293636 3515.45039,240.179091 C3498.28001,253.064545 3483.82076,272.053636 3472.07261,297.146364 C3460.32446,322.239091 3454.45039,356.035152 3454.45039,398.534545 C3454.45039,441.033939 3459.42076,474.490909 3469.3615,498.905455 C3479.30224,523.32 3492.06705,541.743939 3507.65594,554.177273 C3523.24483,566.610606 3540.30224,574.522727 3558.82816,577.913636 C3577.35409,581.304545 3595.20224,583 3612.37261,583 Z M3889.86865,583 C3904.3595,583 3918.17108,582.095758 3931.30341,580.287273 C3944.43573,578.478788 3956.20954,576.444242 3966.62484,574.183636 C3978.39865,571.470909 3989.4932,568.306061 3999.90849,564.689091 L3999.90849,564.689091 L3999.90849,489.410909 C3988.13468,493.027879 3975.90803,496.192727 3963.22854,498.905455 C3952.36041,501.166061 3940.36018,503.200606 3927.22786,505.009091 C3914.09553,506.817576 3901.64246,507.721818 3889.86865,507.721818 C3882.17039,507.721818 3874.24571,506.817576 3866.09462,505.009091 C3857.94352,503.200606 3850.35847,499.583636 3843.33946,494.158182 C3836.32046,488.732727 3830.43356,480.707576 3825.67875,470.082727 C3820.92394,459.457879 3818.32012,445.329091 3817.86728,427.696364 L3817.86728,427.696364 L4021.64475,427.696364 L4022.32401,396.5 C4023.22969,358.069697 4019.26735,326.760303 4010.43699,302.571818 C4001.60664,278.383333 3990.05925,259.394242 3975.79482,245.604545 C3961.5304,231.814848 3945.56783,222.433333 3927.90712,217.46 C3910.2464,212.486667 3893.03853,210 3876.28349,210 C3858.16994,210 3840.05638,212.599697 3821.94283,217.799091 C3803.82928,222.998485 3787.41387,232.606061 3772.69661,246.621818 C3757.97935,260.637576 3746.09233,279.626667 3737.03555,303.589091 C3727.97877,327.551515 3723.45039,358.521818 3723.45039,396.5 C3723.45039,438.095152 3728.65803,471.21303 3739.07332,495.853636 C3749.48862,520.494242 3762.73415,539.257273 3778.80993,552.142727 C3794.88571,565.028182 3812.77284,573.392424 3832.47133,577.235455 C3852.16982,581.078485 3871.30226,583 3889.86865,583 Z M3930.45039,368 L3818.45039,368 C3818.90567,332.394366 3823.68616,307.492958 3832.79185,293.295775 C3841.89754,279.098592 3856.69429,272 3877.18209,272 C3885.8325,272 3893.45852,273.352113 3900.06014,276.056338 C3906.66177,278.760563 3912.12518,283.71831 3916.45039,290.929577 C3920.77559,298.140845 3924.0764,307.943662 3926.35282,320.338028 C3928.62925,332.732394 3929.9951,348.619718 3930.45039,368 L3930.45039,368 Z" id="cratespace" fill="#1E293B" fill-rule="nonzero"></path>
            <mask id="mask-2" fill="white">
                <use xlink:href="#path-1"></use>
            </mask>
            <g id="Clip-3"></g>
            <path d="M574.076669,457.120055 L546.005227,472.694588 C540.241794,475.893129 538.149621,483.163267 541.349227,488.942667 C543.527445,492.870616 547.592283,495.095549 551.794155,495.095549 C553.741326,495.095549 555.733112,494.616725 557.557588,493.600024 L585.635404,478.019106 C591.398837,474.820565 593.484636,467.552024 590.291404,461.777412 C587.098172,456.004396 579.833728,453.921514 574.076669,457.120055 Z" id="Fill-2" fill="#3B82F6" mask="url(#mask-2)"></path>
            <path d="M772.004471,600.256369 C773.150147,598.385765 773.784332,596.191157 773.784332,593.996549 L773.784332,488.893188 C773.784332,482.290212 768.443157,476.940157 761.852734,476.940157 C755.267092,476.940157 749.925917,482.290212 749.925917,488.893188 L749.925917,575.585784 L635.230886,524.348475 L635.230886,302.338753 L749.925917,238.688741 L749.925917,436.864224 C749.925917,443.4672 755.267092,448.809275 761.852734,448.809275 C768.443157,448.809275 773.784332,443.4672 773.784332,436.864224 L773.784332,218.407373 C773.784332,214.149035 771.362319,210.027961 767.635289,207.964231 L392.674319,-0.118109804 C389.114599,-2.08288235 384.676899,-2.08288235 381.115584,-0.118109804 L6.14983488,207.964231 C2.36544063,210.058286 -0.0501979781,214.224051 5.68434189e-13,218.55102 L5.68434189e-13,593.996549 C5.68434189e-13,598.261271 2.42121065,602.375961 6.14983488,604.446075 L171.362944,696.1328 C177.126377,699.324957 184.378073,697.237286 187.571305,691.469059 C190.762944,685.696043 188.678738,678.421118 182.921679,675.228961 L38.6223277,595.150514 L149.901046,545.440651 L374.966541,670.333788 L374.966541,781.797522 L230.22581,701.482855 C224.468751,698.284314 217.204307,700.367196 214.011075,706.146596 C210.817843,711.913227 212.910016,719.183365 218.667075,722.381906 L381.115584,812.528416 C384.657777,814.497976 389.13372,814.497976 392.674319,812.528416 L563.046952,717.979922 C568.810385,714.78138 570.88981,707.511243 567.696578,701.738227 C564.50972,695.971596 557.24687,693.875945 551.481843,697.074486 L398.818582,781.797522 L398.818582,670.333788 L623.877703,545.440651 L735.156422,595.150514 L598.755699,670.850918 C592.992266,674.049459 590.912841,681.313212 594.106073,687.086227 C596.27951,691.026945 600.349129,693.253475 604.544627,693.253475 C606.499765,693.253475 608.485178,692.766671 610.320808,691.749969 L767.635289,604.446075 C769.402402,603.474063 770.946434,601.970557 772.004471,600.256369 Z M386.891765,177.763235 L598.687182,295.300047 L386.891765,412.835263 L175.096348,295.300047 L386.891765,177.763235 Z M623.305662,281.645596 L398.818582,157.070078 L398.818582,30.6064 L737.240627,218.407373 L623.305662,281.645596 Z M374.966541,157.070078 L150.485835,281.645596 L36.5429026,218.407373 L374.966541,30.6064 L374.966541,157.070078 Z M23.8576131,238.688741 L138.554237,302.338753 L138.554237,524.348475 L23.8576131,575.585784 L23.8576131,238.688741 Z M162.411059,315.581416 L374.966541,433.534804 L374.966541,643.013714 L162.411059,525.060325 L162.411059,315.581416 Z M398.818582,433.534804 L611.372471,315.581416 L611.372471,525.060325 L398.818582,643.013714 L398.818582,433.534804 Z" id="Fill-4" fill="#3B82F6" mask="url(#mask-2)"></path>
            <path d="M1478.04483,694 C1495.73372,694 1512.86983,692.894545 1529.45316,690.683636 C1546.0365,688.472727 1560.9615,685.524848 1574.22816,681.84 C1589.70594,678.155152 1604.44668,673.733333 1618.45039,668.574545 L1618.45039,668.574545 L1618.45039,545.869091 C1602.97261,551.027879 1587.49483,555.449697 1572.01705,559.134545 C1558.75039,562.819394 1544.56242,565.767273 1529.45316,567.978182 C1514.3439,570.189091 1500.89298,571.294545 1489.10039,571.294545 C1472.88557,571.294545 1457.77631,569.267879 1443.77261,565.214545 C1429.7689,561.161212 1417.79205,552.870303 1407.84205,540.341818 C1397.89205,527.813333 1389.9689,509.941818 1384.07261,486.727273 C1378.17631,463.512727 1375.22816,432.375758 1375.22816,393.316364 C1375.22816,351.309091 1378.72909,317.77697 1385.73094,292.72 C1392.73279,267.66303 1401.94576,248.686061 1413.36983,235.789091 C1424.7939,222.892121 1437.87631,214.601212 1452.61705,210.916364 C1467.35779,207.231515 1482.46705,205.389091 1497.94483,205.389091 C1507.52631,205.389091 1519.3189,206.678788 1533.32261,209.258182 C1547.32631,211.837576 1560.59298,214.601212 1573.12261,217.549091 C1587.86335,221.233939 1602.97261,225.287273 1618.45039,229.709091 L1618.45039,229.709091 L1618.45039,111.425455 C1608.8689,107.003636 1597.44483,102.950303 1584.17816,99.2654545 C1573.12261,95.5806061 1560.0402,92.4484848 1544.93094,89.8690909 C1529.82168,87.289697 1513.05409,86 1494.62816,86 C1469.5689,86 1441.19298,88.9478788 1409.50039,94.8436364 C1377.80779,100.739394 1347.95779,114.189091 1319.95039,135.192727 C1291.94298,156.196364 1268.35779,187.149091 1249.19483,228.050909 C1230.03187,268.952727 1220.45039,324.041212 1220.45039,393.316364 C1220.45039,462.591515 1228.55779,517.127273 1244.77261,556.923636 C1260.98742,596.72 1281.80872,626.751515 1307.2365,647.018182 C1332.66427,667.284848 1360.48742,680.181818 1390.70594,685.709091 C1420.92446,691.236364 1450.03742,694 1478.04483,694 Z M1849.51983,683 L1849.51983,250.348148 C1857.64251,246.669136 1865.7652,243.358025 1873.88789,240.414815 C1881.27214,237.471605 1889.39483,234.896296 1898.25594,232.688889 C1907.11705,230.481481 1915.97816,229.377778 1924.83927,229.377778 C1932.96196,229.377778 1942.19228,229.92963 1952.53025,231.033333 C1962.86821,232.137037 1972.46775,233.424691 1981.32886,234.896296 C1991.66682,237.103704 2002.374,238.94321 2013.45039,240.414815 L2013.45039,240.414815 L2013.45039,93.6222222 C2007.54298,92.8864198 2001.26636,91.782716 1994.62052,90.3111111 C1988.71312,89.5753086 1981.88268,88.8395062 1974.1292,88.1037037 C1966.37573,87.3679012 1957.69923,87 1948.09969,87 C1929.63904,87 1913.76289,90.6790123 1900.47122,98.037037 C1887.17955,105.395062 1875.73395,113.488889 1866.13441,122.318519 C1855.05802,132.619753 1845.8277,144.024691 1838.44344,156.533333 L1838.44344,156.533333 L1818.50594,98.037037 L1694.45039,98.037037 L1694.45039,683 L1849.51983,683 Z M2205.4969,694 C2230.58837,694 2253.0969,690.867879 2273.02248,684.603636 C2292.94806,678.339394 2309.55271,671.153939 2322.83643,663.047273 C2338.33411,654.203636 2351.98682,643.517576 2363.79457,630.989091 L2363.79457,630.989091 L2380.39922,682.945455 L2515.45039,682.945455 L2515.45039,276.138182 C2515.45039,235.604848 2509.9155,202.993939 2498.84573,178.305455 C2487.77597,153.61697 2472.46279,134.455758 2452.9062,120.821818 C2433.34961,107.187879 2410.84108,97.9757576 2385.38062,93.1854545 C2359.92015,88.3951515 2332.79922,86 2304.01783,86 C2275.97442,86 2249.22248,87.8424242 2223.76201,91.5272727 C2198.30155,95.2121212 2175.97752,99.2654545 2156.78992,103.687273 C2133.9124,108.846061 2112.51085,114.741818 2092.58527,121.374545 L2092.58527,121.374545 L2092.58527,244.08 C2112.51085,238.184242 2132.80542,232.65697 2153.46899,227.498182 C2171.18062,223.813333 2190.9217,220.128485 2212.69225,216.443636 C2234.46279,212.758788 2256.04883,210.916364 2277.45039,210.916364 C2304.01783,210.916364 2324.4969,214.41697 2338.88759,221.418182 C2353.27829,228.419394 2360.47364,246.290909 2360.47364,275.032727 L2360.47364,275.032727 L2360.47364,317.04 L2258.63178,317.04 C2236.49225,317.04 2212.69225,319.250909 2187.23178,323.672727 C2161.77132,328.094545 2138.15581,337.122424 2116.38527,350.756364 C2094.61473,364.390303 2076.34961,383.551515 2061.58992,408.24 C2046.83023,432.928485 2039.45039,465.170909 2039.45039,504.967273 C2039.45039,544.763636 2044.80077,577.006061 2055.50155,601.694545 C2066.20232,626.38303 2079.67054,645.544242 2095.9062,659.178182 C2112.14186,672.812121 2130.03798,682.024242 2149.59457,686.814545 C2169.15116,691.604848 2187.78527,694 2205.4969,694 Z M2262.95705,578 C2243.03705,578 2226.80594,572.8375 2214.26372,562.5125 C2201.7215,552.1875 2195.45039,531.5375 2195.45039,500.5625 C2195.45039,482.125 2197.66372,466.6375 2202.09039,454.1 C2206.51705,441.5625 2213.71039,431.60625 2223.67039,424.23125 C2233.63039,416.85625 2246.17261,411.509375 2261.29705,408.190625 C2276.4215,404.871875 2295.05039,402.84375 2317.18372,402.10625 L2317.18372,402.10625 L2361.45039,401 L2361.45039,549.2375 C2352.59705,555.1375 2343.00594,559.93125 2332.67705,563.61875 C2323.82372,567.30625 2313.31039,570.625 2301.13705,573.575 C2288.96372,576.525 2276.23705,578 2262.95705,578 Z M2834.25594,694 C2851.94483,694 2869.2652,692.895714 2886.21705,690.687143 C2903.1689,688.478571 2917.90964,685.53381 2930.43927,681.852857 C2945.18001,678.171905 2959.18372,673.754762 2972.45039,668.601429 L2972.45039,668.601429 L2972.45039,551.547143 C2956.97261,555.228095 2942.60039,558.540952 2929.33372,561.485714 C2917.54113,564.430476 2905.56427,566.823095 2893.40316,568.663571 C2881.24205,570.504048 2872.21335,571.424286 2866.31705,571.424286 C2855.99853,571.424286 2847.15409,569.399762 2839.78372,565.350714 C2832.41335,561.301667 2828.72816,550.810952 2828.72816,533.878571 L2828.72816,533.878571 L2828.72816,201.488571 L2945.91705,201.488571 L2961.39483,97.6857143 L2828.72816,97.6857143 L2828.72816,-79 L2685.00594,-31.5157143 L2673.95039,97.6857143 L2574.45039,97.6857143 L2574.45039,201.488571 L2673.95039,201.488571 L2673.95039,536.087143 C2673.95039,570.688095 2678.55687,598.295238 2687.76983,618.908571 C2696.98279,639.521905 2709.1439,655.35 2724.25316,666.392857 C2739.36242,677.435714 2756.49853,684.797619 2775.6615,688.478571 C2794.82446,692.159524 2814.35594,694 2834.25594,694 Z M3275.50623,694 C3299.10837,694 3321.60416,692.526061 3342.9936,689.578182 C3364.38304,686.630303 3383.55978,683.313939 3400.52382,679.629091 C3419.70056,675.207273 3437.77095,670.048485 3454.73499,664.152727 L3454.73499,664.152727 L3454.73499,541.447273 C3435.55825,547.34303 3415.64394,552.501818 3394.99207,556.923636 C3377.29046,560.608485 3357.74494,563.924848 3336.3555,566.872727 C3314.96606,569.820606 3294.68297,571.294545 3275.50623,571.294545 C3262.96759,571.294545 3250.06017,569.820606 3236.78397,566.872727 C3223.50776,563.924848 3211.15351,558.029091 3199.72123,549.185455 C3188.28894,540.341818 3178.70057,527.260606 3170.95612,509.941818 C3163.21166,492.62303 3158.97065,469.592727 3158.23309,440.850909 L3158.23309,440.850909 L3490.1382,440.850909 L3491.24455,390 C3492.71969,327.357576 3486.26598,276.322424 3471.88342,236.894545 C3457.50087,197.466667 3438.69291,166.513939 3415.45955,144.036364 C3392.22619,121.558788 3366.22696,106.266667 3337.46185,98.16 C3308.69674,90.0533333 3280.6692,86 3253.37922,86 C3223.87654,86 3194.37387,90.2375758 3164.87119,98.7127273 C3135.36851,107.187879 3108.63171,122.848485 3084.66079,145.694545 C3060.68986,168.540606 3041.32873,199.493333 3026.57739,238.552727 C3011.82605,277.612121 3004.45039,328.094545 3004.45039,390 C3004.45039,457.801212 3012.9324,511.784242 3029.89644,551.949091 C3046.86048,592.113939 3068.43432,622.698182 3094.61794,643.701818 C3120.80157,664.705455 3149.93546,678.339394 3182.01962,684.603636 C3214.10378,690.867879 3245.26598,694 3275.50623,694 Z M3339.45039,343 L3157.45039,343 C3158.19022,284.769953 3165.95852,244.045775 3180.75526,220.827465 C3195.55201,197.609155 3219.59673,186 3252.88941,186 C3266.94632,186 3279.3386,188.211268 3290.06624,192.633803 C3300.79388,197.056338 3309.67193,205.164319 3316.70039,216.957746 C3323.72884,228.751174 3329.09266,244.782864 3332.79185,265.052817 C3336.49104,285.32277 3338.71055,311.305164 3339.45039,343 L3339.45039,343 Z M3712.27181,694 C3739.58134,694 3766.89086,691.973333 3794.20039,687.92 C3821.50991,683.866667 3846.05158,675.207273 3867.82539,661.941818 C3889.59919,648.676364 3907.31348,629.699394 3920.96824,605.010909 C3934.623,580.322424 3941.45039,546.974545 3941.45039,504.967273 C3941.45039,481.384242 3938.12896,460.749091 3931.4861,443.061818 C3924.84324,425.374545 3916.17062,410.082424 3905.46824,397.185455 C3894.76586,384.288485 3882.40277,373.418182 3868.37896,364.574545 C3854.35515,355.730909 3839.96229,348.361212 3825.20039,342.465455 L3825.20039,342.465455 L3769.84324,321.461818 C3747.70039,313.355152 3728.50991,305.064242 3712.27181,296.589091 C3696.03372,288.113939 3687.91467,275.032727 3687.91467,257.345455 C3687.91467,239.658182 3694.55753,226.945455 3707.84324,219.207273 C3721.12896,211.469091 3742.90277,207.6 3773.16467,207.6 C3784.97419,207.6 3799.18253,208.889697 3815.78967,211.469091 C3832.39681,214.048485 3848.08134,217.180606 3862.84324,220.865455 C3880.55753,224.550303 3898.64086,228.972121 3917.09324,234.130909 L3917.09324,234.130909 L3917.09324,113.636364 C3903.80753,108.477576 3889.04562,104.055758 3872.80753,100.370909 C3858.78372,96.6860606 3842.73015,93.369697 3824.64681,90.4218182 C3806.56348,87.4739394 3787.18848,86 3766.52181,86 C3737.7361,86 3709.50396,88.7636364 3681.82539,94.2909091 C3654.14681,99.8181818 3629.78967,109.398788 3608.75396,123.032727 C3587.71824,136.666667 3570.74205,155.275152 3557.82539,178.858182 C3544.90872,202.441212 3538.45039,232.288485 3538.45039,268.4 C3538.45039,294.930909 3542.32539,317.592727 3550.07539,336.385455 C3557.82539,355.178182 3567.97419,371.02303 3580.52181,383.92 C3593.06943,396.81697 3607.09324,407.50303 3622.59324,415.978182 C3638.09324,424.453333 3653.22419,431.270303 3667.9861,436.429091 L3667.9861,436.429091 L3714.4861,453.010909 C3735.89086,461.117576 3753.97419,469.408485 3768.7361,477.883636 C3783.498,486.358788 3790.87896,499.808485 3790.87896,518.232727 C3790.87896,539.604848 3782.75991,553.791515 3766.52181,560.792727 C3750.28372,567.793939 3729.61705,571.294545 3704.52181,571.294545 C3692.71229,571.294545 3678.13491,569.820606 3660.78967,566.872727 C3643.44443,563.924848 3626.28372,560.608485 3609.30753,556.923636 C3590.11705,552.501818 3570.18848,547.34303 3549.52181,541.447273 L3549.52181,541.447273 L3549.52181,666.363636 C3566.498,672.259394 3584.21229,677.049697 3602.66467,680.734545 C3618.16467,684.419394 3635.50991,687.551515 3654.70039,690.130909 C3673.89086,692.710303 3693.08134,694 3712.27181,694 Z M4185.05908,893 L4185.05908,676.057534 C4195.36633,679.009132 4206.04169,681.960731 4217.08517,684.912329 C4226.65618,687.126027 4237.14749,689.155251 4248.55908,691 C4259.97068,692.844749 4271.93444,693.767123 4284.45039,693.767123 C4299.91125,693.767123 4316.84459,692.660274 4335.25039,690.446575 C4353.65618,688.232877 4372.4301,683.621005 4391.57212,676.610959 C4410.71415,669.600913 4428.93589,659.27032 4446.23734,645.619178 C4463.53879,631.968037 4479.18372,613.889498 4493.17212,591.383562 C4507.16053,568.877626 4518.20401,540.837443 4526.30256,507.263014 C4534.40111,473.688584 4538.45039,433.288584 4538.45039,386.063014 C4538.45039,316.700457 4531.08807,261.911416 4516.36343,221.69589 C4501.63879,181.480365 4483.23299,151.226484 4461.14604,130.934247 C4439.05908,110.642009 4414.76343,97.913242 4388.25908,92.7479452 C4361.75473,87.5826484 4336.35473,85 4312.05908,85 C4290.70836,85 4271.75039,88.1360731 4255.18517,94.4082192 C4238.61995,100.680365 4224.44749,107.874886 4212.66778,115.991781 C4199.4156,124.846575 4187.26778,135.177169 4176.2243,146.983562 L4176.2243,146.983562 L4148.6156,96.0684932 L4030.45039,96.0684932 L4030.45039,893 L4185.05908,893 Z M4277.31705,582 C4267.73557,582 4257.60131,581.263768 4246.91427,579.791304 C4236.22724,578.318841 4226.09298,576.478261 4216.5115,574.269565 C4205.45594,572.06087 4194.7689,569.484058 4184.45039,566.53913 L4184.45039,566.53913 L4184.45039,234.130435 C4194.03187,228.24058 4204.35039,222.718841 4215.40594,217.565217 C4224.25039,213.884058 4234.38464,210.202899 4245.80872,206.521739 C4257.23279,202.84058 4268.10409,201 4278.42261,201 C4294.63742,201 4309.1939,202.104348 4322.09205,204.313043 C4334.9902,206.521739 4346.04576,213.515942 4355.25872,225.295652 C4364.47168,237.075362 4371.47353,255.481159 4376.26427,280.513043 C4381.05501,305.544928 4383.45039,340.884058 4383.45039,386.530435 C4383.45039,432.176812 4380.31798,467.884058 4374.05316,493.652174 C4367.78835,519.42029 4359.68094,538.930435 4349.73094,552.182609 C4339.78094,565.434783 4328.35687,573.717391 4315.45872,577.030435 C4302.56057,580.343478 4289.84668,582 4277.31705,582 Z M4773.4969,694 C4798.58837,694 4821.0969,690.867879 4841.02248,684.603636 C4860.94806,678.339394 4877.55271,671.153939 4890.83643,663.047273 C4906.33411,654.203636 4919.98682,643.517576 4931.79457,630.989091 L4931.79457,630.989091 L4948.39922,682.945455 L5083.45039,682.945455 L5083.45039,276.138182 C5083.45039,235.604848 5077.9155,202.993939 5066.84573,178.305455 C5055.77597,153.61697 5040.46279,134.455758 5020.9062,120.821818 C5001.34961,107.187879 4978.84108,97.9757576 4953.38062,93.1854545 C4927.92015,88.3951515 4900.79922,86 4872.01783,86 C4843.97442,86 4817.22248,87.8424242 4791.76201,91.5272727 C4766.30155,95.2121212 4743.97752,99.2654545 4724.78992,103.687273 C4701.9124,108.846061 4680.51085,114.741818 4660.58527,121.374545 L4660.58527,121.374545 L4660.58527,244.08 C4680.51085,238.184242 4700.80542,232.65697 4721.46899,227.498182 C4739.18062,223.813333 4758.9217,220.128485 4780.69225,216.443636 C4802.46279,212.758788 4824.04883,210.916364 4845.45039,210.916364 C4872.01783,210.916364 4892.4969,214.41697 4906.88759,221.418182 C4921.27829,228.419394 4928.47364,246.290909 4928.47364,275.032727 L4928.47364,275.032727 L4928.47364,317.04 L4826.63178,317.04 C4804.49225,317.04 4780.69225,319.250909 4755.23178,323.672727 C4729.77132,328.094545 4706.15581,337.122424 4684.38527,350.756364 C4662.61473,364.390303 4644.34961,383.551515 4629.58992,408.24 C4614.83023,432.928485 4607.45039,465.170909 4607.45039,504.967273 C4607.45039,544.763636 4612.80077,577.006061 4623.50155,601.694545 C4634.20232,626.38303 4647.67054,645.544242 4663.9062,659.178182 C4680.14186,672.812121 4698.03798,682.024242 4717.59457,686.814545 C4737.15116,691.604848 4755.78527,694 4773.4969,694 Z M4830.95705,578 C4811.03705,578 4794.80594,572.8375 4782.26372,562.5125 C4769.7215,552.1875 4763.45039,531.5375 4763.45039,500.5625 C4763.45039,482.125 4765.66372,466.6375 4770.09039,454.1 C4774.51705,441.5625 4781.71039,431.60625 4791.67039,424.23125 C4801.63039,416.85625 4814.17261,411.509375 4829.29705,408.190625 C4844.4215,404.871875 4863.05039,402.84375 4885.18372,402.10625 L4885.18372,402.10625 L4929.45039,401 L4929.45039,549.2375 C4920.59705,555.1375 4911.00594,559.93125 4900.67705,563.61875 C4891.82372,567.30625 4881.31039,570.625 4869.13705,573.575 C4856.96372,576.525 4844.23705,578 4830.95705,578 Z M5445.69205,694 C5463.42539,694 5480.60455,692.894545 5497.22955,690.683636 C5513.85455,688.472727 5528.81705,685.524848 5542.11705,681.84 C5557.63372,678.155152 5572.4115,673.733333 5586.45039,668.574545 L5586.45039,668.574545 L5586.45039,545.869091 C5570.93372,551.027879 5555.41705,555.449697 5539.90039,559.134545 C5526.60039,562.819394 5512.37677,565.767273 5497.22955,567.978182 C5482.08233,570.189091 5468.59761,571.294545 5456.77539,571.294545 C5440.51983,571.294545 5425.37261,569.267879 5411.33372,565.214545 C5397.29483,561.161212 5385.28789,552.870303 5375.31289,540.341818 C5365.33789,527.813333 5357.39483,509.941818 5351.48372,486.727273 C5345.57261,463.512727 5342.61705,432.375758 5342.61705,393.316364 C5342.61705,351.309091 5346.12677,317.77697 5353.14622,292.72 C5360.16566,267.66303 5369.40177,248.686061 5380.85455,235.789091 C5392.30733,222.892121 5405.42261,214.601212 5420.20039,210.916364 C5434.97816,207.231515 5450.12539,205.389091 5465.64205,205.389091 C5475.24761,205.389091 5487.06983,206.678788 5501.10872,209.258182 C5515.14761,211.837576 5528.44761,214.601212 5541.00872,217.549091 C5555.7865,221.233939 5570.93372,225.287273 5586.45039,229.709091 L5586.45039,229.709091 L5586.45039,111.425455 C5576.84483,107.003636 5565.39205,102.950303 5552.09205,99.2654545 C5541.00872,95.5806061 5527.89344,92.4484848 5512.74622,89.8690909 C5497.599,87.289697 5480.78927,86 5462.31705,86 C5437.19483,86 5408.74761,88.9478788 5376.97539,94.8436364 C5345.20316,100.739394 5315.27816,114.189091 5287.20039,135.192727 C5259.12261,156.196364 5235.47816,187.149091 5216.26705,228.050909 C5197.05594,268.952727 5187.45039,324.041212 5187.45039,393.316364 C5187.45039,462.591515 5195.57816,517.127273 5211.83372,556.923636 C5228.08927,596.72 5248.96289,626.751515 5274.45455,647.018182 C5299.94622,667.284848 5327.83927,680.181818 5358.13372,685.709091 C5388.42816,691.236364 5417.61427,694 5445.69205,694 Z M5898.50623,694 C5922.10837,694 5944.60416,692.526061 5965.9936,689.578182 C5987.38304,686.630303 6006.55978,683.313939 6023.52382,679.629091 C6042.70056,675.207273 6060.77095,670.048485 6077.73499,664.152727 L6077.73499,664.152727 L6077.73499,541.447273 C6058.55825,547.34303 6038.64394,552.501818 6017.99207,556.923636 C6000.29046,560.608485 5980.74494,563.924848 5959.3555,566.872727 C5937.96606,569.820606 5917.68297,571.294545 5898.50623,571.294545 C5885.96759,571.294545 5873.06017,569.820606 5859.78397,566.872727 C5846.50776,563.924848 5834.15351,558.029091 5822.72123,549.185455 C5811.28894,540.341818 5801.70057,527.260606 5793.95612,509.941818 C5786.21166,492.62303 5781.97065,469.592727 5781.23309,440.850909 L5781.23309,440.850909 L6113.1382,440.850909 L6114.24455,390 C6115.71969,327.357576 6109.26598,276.322424 6094.88342,236.894545 C6080.50087,197.466667 6061.69291,166.513939 6038.45955,144.036364 C6015.22619,121.558788 5989.22696,106.266667 5960.46185,98.16 C5931.69674,90.0533333 5903.6692,86 5876.37922,86 C5846.87654,86 5817.37387,90.2375758 5787.87119,98.7127273 C5758.36851,107.187879 5731.63171,122.848485 5707.66079,145.694545 C5683.68986,168.540606 5664.32873,199.493333 5649.57739,238.552727 C5634.82605,277.612121 5627.45039,328.094545 5627.45039,390 C5627.45039,457.801212 5635.9324,511.784242 5652.89644,551.949091 C5669.86048,592.113939 5691.43432,622.698182 5717.61794,643.701818 C5743.80157,664.705455 5772.93546,678.339394 5805.01962,684.603636 C5837.10378,690.867879 5868.26598,694 5898.50623,694 Z M5963.45039,343 L5781.45039,343 C5782.19022,284.769953 5789.95852,244.045775 5804.75526,220.827465 C5819.55201,197.609155 5843.59673,186 5876.88941,186 C5890.94632,186 5903.3386,188.211268 5914.06624,192.633803 C5924.79388,197.056338 5933.67193,205.164319 5940.70039,216.957746 C5947.72884,228.751174 5953.09266,244.782864 5956.79185,265.052817 C5960.49104,285.32277 5962.71055,311.305164 5963.45039,343 L5963.45039,343 Z" id="cratespace" fill="#1E293B" fill-rule="nonzero" mask="url(#mask-2)"></path>
        </g>
    </g>
</svg>