<?xml version="1.0" encoding="UTF-8"?>
<svg width="6361px" height="1268px" viewBox="0 0 6361 1268" version="1.1" xmlns="http://www.w3.org/2000/svg" xmlns:xlink="http://www.w3.org/1999/xlink">
    <title>Group 9</title>
    <defs>
        <polygon id="path-1" points="0.549614816 0 774.333947 0 774.333947 814.005586 0.549614816 814.005586"></polygon>
    </defs>
    <g id="Page-1" stroke="none" stroke-width="1" fill="none" fill-rule="evenodd">
        <g id="Group-9">
            <g id="Group-7">
                <circle id="Oval" fill="#3B82F6" cx="634" cy="634" r="634"></circle>
                <g id="Group-5" transform="translate(246.000000, 227.000000)">
                    <mask id="mask-2" fill="white">
                        <use xlink:href="#path-1"></use>
                    </mask>
                    <g id="Clip-3"></g>
                    <path d="M574.626283,457.120055 L546.554842,472.694588 C540.791409,475.893129 538.699236,483.163267 541.898842,488.942667 C544.07706,492.870616 548.141897,495.095549 552.34377,495.095549 C554.29094,495.095549 556.282727,494.616725 558.107203,493.600024 L586.185018,478.019106 C591.948452,474.820565 594.034251,467.552024 590.841018,461.777412 C587.647786,456.004396 580.383343,453.921514 574.626283,457.120055 Z" id="Fill-2" fill="#FFFFFF" mask="url(#mask-2)"></path>
                    <path d="M772.554086,600.256369 C773.699762,598.385765 774.333947,596.191157 774.333947,593.996549 L774.333947,488.893188 C774.333947,482.290212 768.992772,476.940157 762.402349,476.940157 C755.816706,476.940157 750.475532,482.290212 750.475532,488.893188 L750.475532,575.585784 L635.780501,524.348475 L635.780501,302.338753 L750.475532,238.688741 L750.475532,436.864224 C750.475532,443.4672 755.816706,448.809275 762.402349,448.809275 C768.992772,448.809275 774.333947,443.4672 774.333947,436.864224 L774.333947,218.407373 C774.333947,214.149035 771.911934,210.027961 768.184903,207.964231 L393.223934,-0.118109804 C389.664214,-2.08288235 385.226513,-2.08288235 381.665199,-0.118109804 L6.69944969,207.964231 C2.91505544,210.058286 0.499416838,214.224051 0.549614816,218.55102 L0.549614816,593.996549 C0.549614816,598.261271 2.97082546,602.375961 6.69944969,604.446075 L171.912559,696.1328 C177.675992,699.324957 184.927688,697.237286 188.12092,691.469059 C191.312559,685.696043 189.228353,678.421118 183.471294,675.228961 L39.1719425,595.150514 L150.450661,545.440651 L375.516156,670.333788 L375.516156,781.797522 L230.775425,701.482855 C225.018366,698.284314 217.753922,700.367196 214.56069,706.146596 C211.367458,711.913227 213.45963,719.183365 219.21669,722.381906 L381.665199,812.528416 C385.207392,814.497976 389.683335,814.497976 393.223934,812.528416 L563.596567,717.979922 C569.36,714.78138 571.439425,707.511243 568.246193,701.738227 C565.059335,695.971596 557.796485,693.875945 552.031458,697.074486 L399.368197,781.797522 L399.368197,670.333788 L624.427318,545.440651 L735.706037,595.150514 L599.305314,670.850918 C593.541881,674.049459 591.462456,681.313212 594.655688,687.086227 C596.829125,691.026945 600.898743,693.253475 605.094242,693.253475 C607.04938,693.253475 609.034793,692.766671 610.870423,691.749969 L768.184903,604.446075 C769.952016,603.474063 771.496049,601.970557 772.554086,600.256369 Z M387.44138,177.763235 L599.236797,295.300047 L387.44138,412.835263 L175.645963,295.300047 L387.44138,177.763235 Z M623.855277,281.645596 L399.368197,157.070078 L399.368197,30.6064 L737.790242,218.407373 L623.855277,281.645596 Z M375.516156,157.070078 L151.03545,281.645596 L37.0925175,218.407373 L375.516156,30.6064 L375.516156,157.070078 Z M24.4072279,238.688741 L139.103852,302.338753 L139.103852,524.348475 L24.4072279,575.585784 L24.4072279,238.688741 Z M162.960674,315.581416 L375.516156,433.534804 L375.516156,643.013714 L162.960674,525.060325 L162.960674,315.581416 Z M399.368197,433.534804 L611.922086,315.581416 L611.922086,525.060325 L399.368197,643.013714 L399.368197,433.534804 Z" id="Fill-4" fill="#FFFFFF" mask="url(#mask-2)"></path>
                </g>
            </g>
            <path d="M1724.59444,921 C1742.28333,921 1759.41944,919.894545 1776.00278,917.683636 C1792.58611,915.472727 1807.51111,912.524848 1820.77778,908.84 C1836.25556,905.155152 1850.9963,900.733333 1865,895.574545 L1865,895.574545 L1865,772.869091 C1849.52222,778.027879 1834.04444,782.449697 1818.56667,786.134545 C1805.3,789.819394 1791.11204,792.767273 1776.00278,794.978182 C1760.89352,797.189091 1747.44259,798.294545 1735.65,798.294545 C1719.43519,798.294545 1704.32593,796.267879 1690.32222,792.214545 C1676.31852,788.161212 1664.34167,779.870303 1654.39167,767.341818 C1644.44167,754.813333 1636.51852,736.941818 1630.62222,713.727273 C1624.72593,690.512727 1621.77778,659.375758 1621.77778,620.316364 C1621.77778,578.309091 1625.2787,544.77697 1632.28056,519.72 C1639.28241,494.66303 1648.49537,475.686061 1659.91944,462.789091 C1671.34352,449.892121 1684.42593,441.601212 1699.16667,437.916364 C1713.90741,434.231515 1729.01667,432.389091 1744.49444,432.389091 C1754.07593,432.389091 1765.86852,433.678788 1779.87222,436.258182 C1793.87593,438.837576 1807.14259,441.601212 1819.67222,444.549091 C1834.41296,448.233939 1849.52222,452.287273 1865,456.709091 L1865,456.709091 L1865,338.425455 C1855.41852,334.003636 1843.99444,329.950303 1830.72778,326.265455 C1819.67222,322.580606 1806.58981,319.448485 1791.48056,316.869091 C1776.3713,314.289697 1759.6037,313 1741.17778,313 C1716.11852,313 1687.74259,315.947879 1656.05,321.843636 C1624.35741,327.739394 1594.50741,341.189091 1566.5,362.192727 C1538.49259,383.196364 1514.90741,414.149091 1495.74444,455.050909 C1476.58148,495.952727 1467,551.041212 1467,620.316364 C1467,689.591515 1475.10741,744.127273 1491.32222,783.923636 C1507.53704,823.72 1528.35833,853.751515 1553.78611,874.018182 C1579.21389,894.284848 1607.03704,907.181818 1637.25556,912.709091 C1667.47407,918.236364 1696.58704,921 1724.59444,921 Z M2096.06944,910 L2096.06944,477.348148 C2104.19213,473.669136 2112.31481,470.358025 2120.4375,467.414815 C2127.82176,464.471605 2135.94444,461.896296 2144.80556,459.688889 C2153.66667,457.481481 2162.52778,456.377778 2171.38889,456.377778 C2179.51157,456.377778 2188.7419,456.92963 2199.07986,458.033333 C2209.41782,459.137037 2219.01736,460.424691 2227.87847,461.896296 C2238.21644,464.103704 2248.92361,465.94321 2260,467.414815 L2260,467.414815 L2260,320.622222 C2254.09259,319.88642 2247.81597,318.782716 2241.17014,317.311111 C2235.26273,316.575309 2228.43229,315.839506 2220.67882,315.103704 C2212.92535,314.367901 2204.24884,314 2194.64931,314 C2176.18866,314 2160.3125,317.679012 2147.02083,325.037037 C2133.72917,332.395062 2122.28356,340.488889 2112.68403,349.318519 C2101.60764,359.619753 2092.37731,371.024691 2084.99306,383.533333 L2084.99306,383.533333 L2065.05556,325.037037 L1941,325.037037 L1941,910 L2096.06944,910 Z M2452.04651,921 C2477.13798,921 2499.64651,917.867879 2519.57209,911.603636 C2539.49767,905.339394 2556.10233,898.153939 2569.38605,890.047273 C2584.88372,881.203636 2598.53643,870.517576 2610.34419,857.989091 L2610.34419,857.989091 L2626.94884,909.945455 L2762,909.945455 L2762,503.138182 C2762,462.604848 2756.46512,429.993939 2745.39535,405.305455 C2734.32558,380.61697 2719.0124,361.455758 2699.45581,347.821818 C2679.89922,334.187879 2657.3907,324.975758 2631.93023,320.185455 C2606.46977,315.395152 2579.34884,313 2550.56744,313 C2522.52403,313 2495.77209,314.842424 2470.31163,318.527273 C2444.85116,322.212121 2422.52713,326.265455 2403.33953,330.687273 C2380.46202,335.846061 2359.06047,341.741818 2339.13488,348.374545 L2339.13488,348.374545 L2339.13488,471.08 C2359.06047,465.184242 2379.35504,459.65697 2400.0186,454.498182 C2417.73023,450.813333 2437.47132,447.128485 2459.24186,443.443636 C2481.0124,439.758788 2502.59845,437.916364 2524,437.916364 C2550.56744,437.916364 2571.04651,441.41697 2585.43721,448.418182 C2599.82791,455.419394 2607.02326,473.290909 2607.02326,502.032727 L2607.02326,502.032727 L2607.02326,544.04 L2505.1814,544.04 C2483.04186,544.04 2459.24186,546.250909 2433.7814,550.672727 C2408.32093,555.094545 2384.70543,564.122424 2362.93488,577.756364 C2341.16434,591.390303 2322.89922,610.551515 2308.13953,635.24 C2293.37984,659.928485 2286,692.170909 2286,731.967273 C2286,771.763636 2291.35039,804.006061 2302.05116,828.694545 C2312.75194,853.38303 2326.22016,872.544242 2342.45581,886.178182 C2358.69147,899.812121 2376.5876,909.024242 2396.14419,913.814545 C2415.70078,918.604848 2434.33488,921 2452.04651,921 Z M2509.50667,805 C2489.58667,805 2473.35556,799.8375 2460.81333,789.5125 C2448.27111,779.1875 2442,758.5375 2442,727.5625 C2442,709.125 2444.21333,693.6375 2448.64,681.1 C2453.06667,668.5625 2460.26,658.60625 2470.22,651.23125 C2480.18,643.85625 2492.72222,638.509375 2507.84667,635.190625 C2522.97111,631.871875 2541.6,629.84375 2563.73333,629.10625 L2563.73333,629.10625 L2608,628 L2608,776.2375 C2599.14667,782.1375 2589.55556,786.93125 2579.22667,790.61875 C2570.37333,794.30625 2559.86,797.625 2547.68667,800.575 C2535.51333,803.525 2522.78667,805 2509.50667,805 Z M3080.80556,921 C3098.49444,921 3115.81481,919.895714 3132.76667,917.687143 C3149.71852,915.478571 3164.45926,912.53381 3176.98889,908.852857 C3191.72963,905.171905 3205.73333,900.754762 3219,895.601429 L3219,895.601429 L3219,778.547143 C3203.52222,782.228095 3189.15,785.540952 3175.88333,788.485714 C3164.09074,791.430476 3152.11389,793.823095 3139.95278,795.663571 C3127.79167,797.504048 3118.76296,798.424286 3112.86667,798.424286 C3102.54815,798.424286 3093.7037,796.399762 3086.33333,792.350714 C3078.96296,788.301667 3075.27778,777.810952 3075.27778,760.878571 L3075.27778,760.878571 L3075.27778,428.488571 L3192.46667,428.488571 L3207.94444,324.685714 L3075.27778,324.685714 L3075.27778,148 L2931.55556,195.484286 L2920.5,324.685714 L2821,324.685714 L2821,428.488571 L2920.5,428.488571 L2920.5,763.087143 C2920.5,797.688095 2925.10648,825.295238 2934.31944,845.908571 C2943.53241,866.521905 2955.69352,882.35 2970.80278,893.392857 C2985.91204,904.435714 3003.04815,911.797619 3022.21111,915.478571 C3041.37407,919.159524 3060.90556,921 3080.80556,921 Z M3522.05584,921 C3545.65798,921 3568.15378,919.526061 3589.54322,916.578182 C3610.93266,913.630303 3630.1094,910.313939 3647.07344,906.629091 C3666.25018,902.207273 3684.32057,897.048485 3701.2846,891.152727 L3701.2846,891.152727 L3701.2846,768.447273 C3682.10786,774.34303 3662.19356,779.501818 3641.54168,783.923636 C3623.84008,787.608485 3604.29455,790.924848 3582.90511,793.872727 C3561.51567,796.820606 3541.23258,798.294545 3522.05584,798.294545 C3509.51721,798.294545 3496.60978,796.820606 3483.33358,793.872727 C3470.05738,790.924848 3457.70313,785.029091 3446.27084,776.185455 C3434.83855,767.341818 3425.25018,754.260606 3417.50573,736.941818 C3409.76128,719.62303 3405.52027,696.592727 3404.7827,667.850909 L3404.7827,667.850909 L3736.68782,667.850909 L3737.79417,617 C3739.2693,554.357576 3732.81559,503.322424 3718.43304,463.894545 C3704.05048,424.466667 3685.24252,393.513939 3662.00917,371.036364 C3638.77581,348.558788 3612.77657,333.266667 3584.01146,325.16 C3555.24635,317.053333 3527.21881,313 3499.92884,313 C3470.42616,313 3440.92348,317.237576 3411.42081,325.712727 C3381.91813,334.187879 3355.18133,349.848485 3331.2104,372.694545 C3307.23948,395.540606 3287.87835,426.493333 3273.12701,465.552727 C3258.37567,504.612121 3251,555.094545 3251,617 C3251,684.801212 3259.48202,738.784242 3276.44606,778.949091 C3293.4101,819.113939 3314.98393,849.698182 3341.16756,870.701818 C3367.35118,891.705455 3396.48508,905.339394 3428.56924,911.603636 C3460.6534,917.867879 3491.8156,921 3522.05584,921 Z M3586,570 L3404,570 C3404.73984,511.769953 3412.50813,471.045775 3427.30488,447.827465 C3442.10163,424.609155 3466.14634,413 3499.43902,413 C3513.49593,413 3525.88821,415.211268 3536.61585,419.633803 C3547.3435,424.056338 3556.22154,432.164319 3563.25,443.957746 C3570.27846,455.751174 3575.64228,471.782864 3579.34146,492.052817 C3583.04065,512.32277 3585.26016,538.305164 3586,570 L3586,570 Z M3958.82143,921 C3986.13095,921 4013.44048,918.973333 4040.75,914.92 C4068.05952,910.866667 4092.60119,902.207273 4114.375,888.941818 C4136.14881,875.676364 4153.8631,856.699394 4167.51786,832.010909 C4181.17262,807.322424 4188,773.974545 4188,731.967273 C4188,708.384242 4184.67857,687.749091 4178.03571,670.061818 C4171.39286,652.374545 4162.72024,637.082424 4152.01786,624.185455 C4141.31548,611.288485 4128.95238,600.418182 4114.92857,591.574545 C4100.90476,582.730909 4086.5119,575.361212 4071.75,569.465455 L4071.75,569.465455 L4016.39286,548.461818 C3994.25,540.355152 3975.05952,532.064242 3958.82143,523.589091 C3942.58333,515.113939 3934.46429,502.032727 3934.46429,484.345455 C3934.46429,466.658182 3941.10714,453.945455 3954.39286,446.207273 C3967.67857,438.469091 3989.45238,434.6 4019.71429,434.6 C4031.52381,434.6 4045.73214,435.889697 4062.33929,438.469091 C4078.94643,441.048485 4094.63095,444.180606 4109.39286,447.865455 C4127.10714,451.550303 4145.19048,455.972121 4163.64286,461.130909 L4163.64286,461.130909 L4163.64286,340.636364 C4150.35714,335.477576 4135.59524,331.055758 4119.35714,327.370909 C4105.33333,323.686061 4089.27976,320.369697 4071.19643,317.421818 C4053.1131,314.473939 4033.7381,313 4013.07143,313 C3984.28571,313 3956.05357,315.763636 3928.375,321.290909 C3900.69643,326.818182 3876.33929,336.398788 3855.30357,350.032727 C3834.26786,363.666667 3817.29167,382.275152 3804.375,405.858182 C3791.45833,429.441212 3785,459.288485 3785,495.4 C3785,521.930909 3788.875,544.592727 3796.625,563.385455 C3804.375,582.178182 3814.52381,598.02303 3827.07143,610.92 C3839.61905,623.81697 3853.64286,634.50303 3869.14286,642.978182 C3884.64286,651.453333 3899.77381,658.270303 3914.53571,663.429091 L3914.53571,663.429091 L3961.03571,680.010909 C3982.44048,688.117576 4000.52381,696.408485 4015.28571,704.883636 C4030.04762,713.358788 4037.42857,726.808485 4037.42857,745.232727 C4037.42857,766.604848 4029.30952,780.791515 4013.07143,787.792727 C3996.83333,794.793939 3976.16667,798.294545 3951.07143,798.294545 C3939.2619,798.294545 3924.68452,796.820606 3907.33929,793.872727 C3889.99405,790.924848 3872.83333,787.608485 3855.85714,783.923636 C3836.66667,779.501818 3816.7381,774.34303 3796.07143,768.447273 L3796.07143,768.447273 L3796.07143,893.363636 C3813.04762,899.259394 3830.7619,904.049697 3849.21429,907.734545 C3864.71429,911.419394 3882.05952,914.551515 3901.25,917.130909 C3920.44048,919.710303 3939.63095,921 3958.82143,921 Z M4431.6087,1120 L4431.6087,903.057534 C4441.91594,906.009132 4452.5913,908.960731 4463.63478,911.912329 C4473.2058,914.126027 4483.6971,916.155251 4495.1087,918 C4506.52029,919.844749 4518.48406,920.767123 4531,920.767123 C4546.46087,920.767123 4563.3942,919.660274 4581.8,917.446575 C4600.2058,915.232877 4618.97971,910.621005 4638.12174,903.610959 C4657.26377,896.600913 4675.48551,886.27032 4692.78696,872.619178 C4710.08841,858.968037 4725.73333,840.889498 4739.72174,818.383562 C4753.71014,795.877626 4764.75362,767.837443 4772.85217,734.263014 C4780.95072,700.688584 4785,660.288584 4785,613.063014 C4785,543.700457 4777.63768,488.911416 4762.91304,448.69589 C4748.18841,408.480365 4729.78261,378.226484 4707.69565,357.934247 C4685.6087,337.642009 4661.31304,324.913242 4634.8087,319.747945 C4608.30435,314.582648 4582.90435,312 4558.6087,312 C4537.25797,312 4518.3,315.136073 4501.73478,321.408219 C4485.16957,327.680365 4470.9971,334.874886 4459.21739,342.991781 C4445.96522,351.846575 4433.81739,362.177169 4422.77391,373.983562 L4422.77391,373.983562 L4395.16522,323.068493 L4277,323.068493 L4277,1120 L4431.6087,1120 Z M4523.86667,809 C4514.28519,809 4504.15093,808.263768 4493.46389,806.791304 C4482.77685,805.318841 4472.64259,803.478261 4463.06111,801.269565 C4452.00556,799.06087 4441.31852,796.484058 4431,793.53913 L4431,793.53913 L4431,461.130435 C4440.58148,455.24058 4450.9,449.718841 4461.95556,444.565217 C4470.8,440.884058 4480.93426,437.202899 4492.35833,433.521739 C4503.78241,429.84058 4514.6537,428 4524.97222,428 C4541.18704,428 4555.74352,429.104348 4568.64167,431.313043 C4581.53981,433.521739 4592.59537,440.515942 4601.80833,452.295652 C4611.0213,464.075362 4618.02315,482.481159 4622.81389,507.513043 C4627.60463,532.544928 4630,567.884058 4630,613.530435 C4630,659.176812 4626.86759,694.884058 4620.60278,720.652174 C4614.33796,746.42029 4606.23056,765.930435 4596.28056,779.182609 C4586.33056,792.434783 4574.90648,800.717391 4562.00833,804.030435 C4549.11019,807.343478 4536.3963,809 4523.86667,809 Z M5020.04651,921 C5045.13798,921 5067.64651,917.867879 5087.57209,911.603636 C5107.49767,905.339394 5124.10233,898.153939 5137.38605,890.047273 C5152.88372,881.203636 5166.53643,870.517576 5178.34419,857.989091 L5178.34419,857.989091 L5194.94884,909.945455 L5330,909.945455 L5330,503.138182 C5330,462.604848 5324.46512,429.993939 5313.39535,405.305455 C5302.32558,380.61697 5287.0124,361.455758 5267.45581,347.821818 C5247.89922,334.187879 5225.3907,324.975758 5199.93023,320.185455 C5174.46977,315.395152 5147.34884,313 5118.56744,313 C5090.52403,313 5063.77209,314.842424 5038.31163,318.527273 C5012.85116,322.212121 4990.52713,326.265455 4971.33953,330.687273 C4948.46202,335.846061 4927.06047,341.741818 4907.13488,348.374545 L4907.13488,348.374545 L4907.13488,471.08 C4927.06047,465.184242 4947.35504,459.65697 4968.0186,454.498182 C4985.73023,450.813333 5005.47132,447.128485 5027.24186,443.443636 C5049.0124,439.758788 5070.59845,437.916364 5092,437.916364 C5118.56744,437.916364 5139.04651,441.41697 5153.43721,448.418182 C5167.82791,455.419394 5175.02326,473.290909 5175.02326,502.032727 L5175.02326,502.032727 L5175.02326,544.04 L5073.1814,544.04 C5051.04186,544.04 5027.24186,546.250909 5001.7814,550.672727 C4976.32093,555.094545 4952.70543,564.122424 4930.93488,577.756364 C4909.16434,591.390303 4890.89922,610.551515 4876.13953,635.24 C4861.37984,659.928485 4854,692.170909 4854,731.967273 C4854,771.763636 4859.35039,804.006061 4870.05116,828.694545 C4880.75194,853.38303 4894.22016,872.544242 4910.45581,886.178182 C4926.69147,899.812121 4944.5876,909.024242 4964.14419,913.814545 C4983.70078,918.604848 5002.33488,921 5020.04651,921 Z M5077.50667,805 C5057.58667,805 5041.35556,799.8375 5028.81333,789.5125 C5016.27111,779.1875 5010,758.5375 5010,727.5625 C5010,709.125 5012.21333,693.6375 5016.64,681.1 C5021.06667,668.5625 5028.26,658.60625 5038.22,651.23125 C5048.18,643.85625 5060.72222,638.509375 5075.84667,635.190625 C5090.97111,631.871875 5109.6,629.84375 5131.73333,629.10625 L5131.73333,629.10625 L5176,628 L5176,776.2375 C5167.14667,782.1375 5157.55556,786.93125 5147.22667,790.61875 C5138.37333,794.30625 5127.86,797.625 5115.68667,800.575 C5103.51333,803.525 5090.78667,805 5077.50667,805 Z M5692.24167,921 C5709.975,921 5727.15417,919.894545 5743.77917,917.683636 C5760.40417,915.472727 5775.36667,912.524848 5788.66667,908.84 C5804.18333,905.155152 5818.96111,900.733333 5833,895.574545 L5833,895.574545 L5833,772.869091 C5817.48333,778.027879 5801.96667,782.449697 5786.45,786.134545 C5773.15,789.819394 5758.92639,792.767273 5743.77917,794.978182 C5728.63194,797.189091 5715.14722,798.294545 5703.325,798.294545 C5687.06944,798.294545 5671.92222,796.267879 5657.88333,792.214545 C5643.84444,788.161212 5631.8375,779.870303 5621.8625,767.341818 C5611.8875,754.813333 5603.94444,736.941818 5598.03333,713.727273 C5592.12222,690.512727 5589.16667,659.375758 5589.16667,620.316364 C5589.16667,578.309091 5592.67639,544.77697 5599.69583,519.72 C5606.71528,494.66303 5615.95139,475.686061 5627.40417,462.789091 C5638.85694,449.892121 5651.97222,441.601212 5666.75,437.916364 C5681.52778,434.231515 5696.675,432.389091 5712.19167,432.389091 C5721.79722,432.389091 5733.61944,433.678788 5747.65833,436.258182 C5761.69722,438.837576 5774.99722,441.601212 5787.55833,444.549091 C5802.33611,448.233939 5817.48333,452.287273 5833,456.709091 L5833,456.709091 L5833,338.425455 C5823.39444,334.003636 5811.94167,329.950303 5798.64167,326.265455 C5787.55833,322.580606 5774.44306,319.448485 5759.29583,316.869091 C5744.14861,314.289697 5727.33889,313 5708.86667,313 C5683.74444,313 5655.29722,315.947879 5623.525,321.843636 C5591.75278,327.739394 5561.82778,341.189091 5533.75,362.192727 C5505.67222,383.196364 5482.02778,414.149091 5462.81667,455.050909 C5443.60556,495.952727 5434,551.041212 5434,620.316364 C5434,689.591515 5442.12778,744.127273 5458.38333,783.923636 C5474.63889,823.72 5495.5125,853.751515 5521.00417,874.018182 C5546.49583,894.284848 5574.38889,907.181818 5604.68333,912.709091 C5634.97778,918.236364 5664.16389,921 5692.24167,921 Z M6145.05584,921 C6168.65798,921 6191.15378,919.526061 6212.54322,916.578182 C6233.93266,913.630303 6253.1094,910.313939 6270.07344,906.629091 C6289.25018,902.207273 6307.32057,897.048485 6324.2846,891.152727 L6324.2846,891.152727 L6324.2846,768.447273 C6305.10786,774.34303 6285.19356,779.501818 6264.54168,783.923636 C6246.84008,787.608485 6227.29455,790.924848 6205.90511,793.872727 C6184.51567,796.820606 6164.23258,798.294545 6145.05584,798.294545 C6132.51721,798.294545 6119.60978,796.820606 6106.33358,793.872727 C6093.05738,790.924848 6080.70313,785.029091 6069.27084,776.185455 C6057.83855,767.341818 6048.25018,754.260606 6040.50573,736.941818 C6032.76128,719.62303 6028.52027,696.592727 6027.7827,667.850909 L6027.7827,667.850909 L6359.68782,667.850909 L6360.79417,617 C6362.2693,554.357576 6355.81559,503.322424 6341.43304,463.894545 C6327.05048,424.466667 6308.24252,393.513939 6285.00917,371.036364 C6261.77581,348.558788 6235.77657,333.266667 6207.01146,325.16 C6178.24635,317.053333 6150.21881,313 6122.92884,313 C6093.42616,313 6063.92348,317.237576 6034.42081,325.712727 C6004.91813,334.187879 5978.18133,349.848485 5954.2104,372.694545 C5930.23948,395.540606 5910.87835,426.493333 5896.12701,465.552727 C5881.37567,504.612121 5874,555.094545 5874,617 C5874,684.801212 5882.48202,738.784242 5899.44606,778.949091 C5916.4101,819.113939 5937.98393,849.698182 5964.16756,870.701818 C5990.35118,891.705455 6019.48508,905.339394 6051.56924,911.603636 C6083.6534,917.867879 6114.8156,921 6145.05584,921 Z M6210,570 L6028,570 C6028.73984,511.769953 6036.50813,471.045775 6051.30488,447.827465 C6066.10163,424.609155 6090.14634,413 6123.43902,413 C6137.49593,413 6149.88821,415.211268 6160.61585,419.633803 C6171.3435,424.056338 6180.22154,432.164319 6187.25,443.957746 C6194.27846,455.751174 6199.64228,471.782864 6203.34146,492.052817 C6207.04065,512.32277 6209.26016,538.305164 6210,570 L6210,570 Z" id="cratespace" fill="#1E293B" fill-rule="nonzero"></path>
        </g>
    </g>
</svg>