<?xml version="1.0" encoding="UTF-8"?>
<svg width="775px" height="815px" viewBox="0 0 775 815" version="1.1" xmlns="http://www.w3.org/2000/svg" xmlns:xlink="http://www.w3.org/1999/xlink">
    <title>Group 5</title>
    <defs>
        <polygon id="path-1" points="0.549614816 0 774.333947 0 774.333947 814.005586 0.549614816 814.005586"></polygon>
    </defs>
    <g id="Page-1" stroke="none" stroke-width="1" fill="none" fill-rule="evenodd">
        <g id="Group-5">
            <mask id="mask-2" fill="white">
                <use xlink:href="#path-1"></use>
            </mask>
            <g id="Clip-3"></g>
            <path d="M574.626283,457.120055 L546.554842,472.694588 C540.791409,475.893129 538.699236,483.163267 541.898842,488.942667 C544.07706,492.870616 548.141897,495.095549 552.34377,495.095549 C554.29094,495.095549 556.282727,494.616725 558.107203,493.600024 L586.185018,478.019106 C591.948452,474.820565 594.034251,467.552024 590.841018,461.777412 C587.647786,456.004396 580.383343,453.921514 574.626283,457.120055 Z" id="Fill-2" fill="#0366D6" mask="url(#mask-2)"></path>
            <path d="M772.554086,600.256369 C773.699762,598.385765 774.333947,596.191157 774.333947,593.996549 L774.333947,488.893188 C774.333947,482.290212 768.992772,476.940157 762.402349,476.940157 C755.816706,476.940157 750.475532,482.290212 750.475532,488.893188 L750.475532,575.585784 L635.780501,524.348475 L635.780501,302.338753 L750.475532,238.688741 L750.475532,436.864224 C750.475532,443.4672 755.816706,448.809275 762.402349,448.809275 C768.992772,448.809275 774.333947,443.4672 774.333947,436.864224 L774.333947,218.407373 C774.333947,214.149035 771.911934,210.027961 768.184903,207.964231 L393.223934,-0.118109804 C389.664214,-2.08288235 385.226513,-2.08288235 381.665199,-0.118109804 L6.69944969,207.964231 C2.91505544,210.058286 0.499416838,214.224051 0.549614816,218.55102 L0.549614816,593.996549 C0.549614816,598.261271 2.97082546,602.375961 6.69944969,604.446075 L171.912559,696.1328 C177.675992,699.324957 184.927688,697.237286 188.12092,691.469059 C191.312559,685.696043 189.228353,678.421118 183.471294,675.228961 L39.1719425,595.150514 L150.450661,545.440651 L375.516156,670.333788 L375.516156,781.797522 L230.775425,701.482855 C225.018366,698.284314 217.753922,700.367196 214.56069,706.146596 C211.367458,711.913227 213.45963,719.183365 219.21669,722.381906 L381.665199,812.528416 C385.207392,814.497976 389.683335,814.497976 393.223934,812.528416 L563.596567,717.979922 C569.36,714.78138 571.439425,707.511243 568.246193,701.738227 C565.059335,695.971596 557.796485,693.875945 552.031458,697.074486 L399.368197,781.797522 L399.368197,670.333788 L624.427318,545.440651 L735.706037,595.150514 L599.305314,670.850918 C593.541881,674.049459 591.462456,681.313212 594.655688,687.086227 C596.829125,691.026945 600.898743,693.253475 605.094242,693.253475 C607.04938,693.253475 609.034793,692.766671 610.870423,691.749969 L768.184903,604.446075 C769.952016,603.474063 771.496049,601.970557 772.554086,600.256369 Z M387.44138,177.763235 L599.236797,295.300047 L387.44138,412.835263 L175.645963,295.300047 L387.44138,177.763235 Z M623.855277,281.645596 L399.368197,157.070078 L399.368197,30.6064 L737.790242,218.407373 L623.855277,281.645596 Z M375.516156,157.070078 L151.03545,281.645596 L37.0925175,218.407373 L375.516156,30.6064 L375.516156,157.070078 Z M24.4072279,238.688741 L139.103852,302.338753 L139.103852,524.348475 L24.4072279,575.585784 L24.4072279,238.688741 Z M162.960674,315.581416 L375.516156,433.534804 L375.516156,643.013714 L162.960674,525.060325 L162.960674,315.581416 Z M399.368197,433.534804 L611.922086,315.581416 L611.922086,525.060325 L399.368197,643.013714 L399.368197,433.534804 Z" id="Fill-4" fill="#0366D6" mask="url(#mask-2)"></path>
        </g>
    </g>
</svg>